<?xml version="1.0" standalone="no"?>
<!DOCTYPE svg PUBLIC "-//W3C//DTD SVG 20010904//EN"
 "http://www.w3.org/TR/2001/REC-SVG-20010904/DTD/svg10.dtd">
<svg version="1.0" xmlns="http://www.w3.org/2000/svg"
 width="512.000000pt" height="512.000000pt" viewBox="0 0 512.000000 512.000000"
 preserveAspectRatio="xMidYMid meet">
<metadata>
Created by potrace 1.16, written by Peter Selinger 2001-2019
</metadata>
<g transform="translate(0.000000,512.000000) scale(0.100000,-0.100000)"
fill="#000000" stroke="none">
<path d="M2211 4249 c-350 -39 -686 -168 -863 -330 -39 -35 -35 -34 39 16 202
137 493 239 783 275 125 15 411 12 547 -5 344 -45 656 -153 881 -303 331 -221
594 -600 641 -922 6 -41 18 -127 28 -190 26 -173 24 -515 -5 -670 -40 -220
-94 -364 -202 -550 -58 -99 -150 -210 -217 -261 -31 -24 -65 -51 -74 -61 -32
-31 -165 -86 -292 -122 -70 -20 -173 -53 -229 -75 -274 -103 -457 -141 -718
-148 -223 -6 -360 11 -528 66 -600 197 -1027 775 -1061 1436 -4 84 -10 132
-15 120 -23 -59 -25 -58 -25 18 -2 242 77 583 181 777 124 232 342 452 586
590 41 23 76 39 80 36 16 -17 -72 -130 -142 -179 -68 -49 -174 -146 -208 -190
-27 -36 -22 -33 33 19 71 69 189 164 201 164 5 0 7 -20 6 -44 -1 -27 5 -55 15
-69 15 -23 15 -24 -18 -40 -38 -18 -95 -90 -95 -119 0 -11 -3 -18 -7 -16 -45
23 -86 37 -124 43 -40 6 -49 4 -77 -20 -18 -15 -32 -31 -32 -36 0 -5 -15 -32
-34 -61 -38 -60 -69 -118 -62 -118 2 0 23 34 47 76 l43 75 18 -51 18 -52 -38
-44 c-31 -38 -42 -44 -67 -40 -73 9 -135 -47 -135 -124 0 -25 -7 -68 -16 -94
-9 -26 -14 -49 -12 -51 2 -3 12 20 22 50 l17 55 27 -25 c14 -13 39 -27 54 -30
15 -4 28 -8 28 -10 0 -3 -14 -26 -30 -52 -17 -26 -30 -51 -30 -55 0 -4 -18
-24 -40 -44 -37 -34 -40 -40 -40 -88 0 -28 8 -69 18 -90 16 -35 16 -46 5 -100
-15 -74 -17 -247 -3 -336 35 -218 117 -430 225 -586 23 -34 48 -78 55 -99 16
-48 71 -109 113 -126 17 -7 59 -36 92 -65 161 -139 414 -264 585 -290 25 -4
53 -11 63 -16 18 -9 264 10 482 37 101 12 111 12 129 -3 17 -16 20 -15 47 17
19 23 51 43 98 61 39 15 106 51 151 79 47 31 98 55 126 60 62 12 96 39 113 90
10 31 22 46 50 60 20 11 49 32 65 47 26 27 28 33 23 86 -5 57 -4 59 49 139 30
44 54 87 54 95 0 8 6 14 13 14 28 0 51 42 62 112 l10 72 48 12 c26 7 59 20 74
29 l26 17 -7 -38 c-26 -139 -131 -374 -241 -539 -128 -192 -275 -331 -467
-443 -99 -57 -86 -61 22 -7 195 99 388 284 520 500 94 152 181 374 199 506 5
37 16 80 25 97 18 34 21 123 6 152 -8 15 -5 19 25 24 19 4 48 19 66 33 l31 26
-7 -69 c-7 -64 -45 -264 -59 -309 -3 -11 5 3 19 32 34 68 64 209 72 336 l6
103 -31 32 c-16 17 -32 29 -34 26 -3 -2 -20 6 -38 18 -29 20 -38 36 -67 133
-18 61 -46 144 -63 185 -16 41 -50 134 -76 205 -25 72 -54 146 -64 166 -17 33
-17 39 -3 83 13 40 14 51 2 72 -18 35 -59 54 -114 54 -27 0 -60 8 -76 17 -30
18 -30 19 -23 80 7 73 -11 114 -64 139 -28 13 -41 14 -83 4 -65 -16 -87 -9
-150 45 -42 36 -60 45 -91 45 -27 0 -40 5 -48 20 -15 27 -39 38 -154 72 -55
16 -109 37 -121 48 -11 10 -29 19 -40 19 -72 -1 -166 16 -181 32 -10 11 -22
19 -28 19 -7 0 -32 20 -56 45 l-44 45 44 -5 c25 -2 77 -7 116 -10 452 -33 966
-324 1252 -708 175 -235 279 -459 312 -676 6 -36 20 -104 32 -151 17 -69 20
-104 15 -185 -6 -114 -16 -147 -91 -300 -30 -60 -84 -171 -120 -245 -95 -197
-240 -382 -416 -534 l-55 -48 55 28 c37 19 95 68 175 149 170 170 239 277 376
584 13 30 45 73 72 100 81 76 90 110 62 218 -8 31 -15 80 -15 108 0 28 -7 78
-16 110 -8 33 -19 97 -24 142 -23 214 -160 504 -351 743 -256 321 -662 577
-1047 660 -268 58 -568 50 -819 -24 -49 -14 -87 -20 -95 -15 -25 17 -50 9 -86
-27 -19 -19 -63 -49 -96 -66 -217 -109 -468 -347 -604 -572 -77 -127 -151
-341 -189 -546 -23 -123 -22 -579 1 -723 41 -250 152 -513 313 -740 87 -123
289 -321 403 -396 171 -112 354 -189 539 -227 62 -12 115 -15 205 -12 146 6
211 27 284 94 32 28 59 44 75 44 90 0 368 73 536 140 55 22 146 51 203 65 333
85 518 235 694 562 163 302 215 697 155 1178 -28 223 -57 338 -116 463 -251
530 -738 859 -1417 957 -129 19 -446 27 -557 14z m69 -199 c-23 -29 -41 -41
-68 -45 -20 -3 -83 -15 -140 -26 l-102 -20 -30 21 c-17 12 -30 25 -30 29 0 15
279 78 358 80 l44 1 -32 -40z m157 -22 c65 -59 73 -69 90 -115 13 -36 7 -45
-36 -49 -19 -2 -22 -1 -11 6 25 16 3 22 -27 8 -54 -27 -63 -16 -58 70 4 77 4
77 -7 25 -6 -29 -14 -53 -17 -53 -3 0 -15 13 -26 29 -11 17 -21 28 -24 26 -2
-3 8 -23 23 -46 34 -50 29 -59 -13 -24 -17 15 -31 22 -31 16 0 -15 -47 -14
-53 2 -4 12 49 103 81 140 24 28 47 20 109 -35z m-506 -84 c41 -36 75 -74 77
-83 2 -9 -6 -25 -16 -34 -19 -17 -20 -17 -25 10 -3 15 -12 37 -21 48 l-15 20
-7 -20 c-4 -11 -17 -45 -30 -75 l-23 -55 -2 35 c-1 19 -1 58 0 86 2 29 -1 54
-7 58 -5 3 -7 -5 -5 -18 3 -14 0 -32 -6 -43 -6 -10 -11 -12 -11 -5 0 6 -4 12
-9 12 -5 0 -3 -19 4 -42 7 -24 15 -64 19 -89 l7 -46 -47 44 c-61 59 -69 47
-10 -18 30 -33 46 -60 46 -78 0 -14 3 -36 6 -49 l7 -23 -39 16 c-22 10 -56 22
-76 27 -47 13 -78 59 -78 115 0 33 9 51 49 101 27 33 55 78 61 99 31 96 51 97
151 7z m291 23 c-17 -18 -41 -25 -118 -36 -120 -16 -146 -1 -42 23 68 15 150
32 172 35 5 1 0 -9 -12 -22z m391 -61 c-30 -36 -33 -35 -51 7 l-12 27 46 0 46
0 -29 -34z m-456 8 c19 -5 20 -9 10 -27 -7 -12 -21 -29 -32 -38 -18 -16 -22
-16 -37 -2 -21 19 -23 38 -5 58 13 16 30 18 64 9z m604 -20 c13 -14 20 -24 14
-23 -5 2 -20 -2 -32 -9 -17 -9 -22 -9 -26 1 -2 6 -7 -12 -11 -42 l-7 -54 -15
29 c-15 28 -34 53 -34 43 0 -3 9 -22 19 -43 11 -21 17 -45 14 -53 -5 -13 -15
-7 -45 26 -46 49 -45 69 8 119 42 40 81 42 115 6z m-819 -62 c-16 -5 -15 -29
2 -35 8 -3 23 -3 34 0 11 2 30 0 41 -7 21 -11 21 -11 -11 -56 -31 -44 -33 -45
-39 -22 -6 18 -7 15 -8 -16 -1 -36 -2 -38 -28 -31 -15 3 -31 12 -35 18 -3 6
-8 0 -11 -14 -2 -13 -2 -4 0 21 2 25 14 78 26 118 19 64 23 70 32 51 7 -16 6
-24 -3 -27z m951 18 c5 -4 -6 -17 -24 -28 l-33 -21 -13 37 c-7 20 -13 38 -13
39 0 4 76 -20 83 -27z m-483 -20 c97 -50 113 -71 89 -123 l-11 -25 -35 39
c-19 21 -60 51 -91 66 -141 69 -282 3 -367 -171 -26 -52 -35 -64 -35 -45 0 74
106 210 203 259 56 29 69 31 132 27 46 -2 85 -12 115 -27z m-63 -59 c44 -20
123 -93 123 -113 0 -7 -19 7 -42 29 -24 23 -56 47 -71 52 -44 17 -137 13 -182
-8 -40 -18 -130 -109 -163 -163 -20 -35 -35 -36 -22 -3 53 139 152 225 260
225 32 0 72 -8 97 -19z m786 -29 c15 -16 25 -30 23 -33 -3 -2 -25 -3 -50 -1
-33 3 -49 10 -57 23 -24 47 42 55 84 11z m-800 -13 c21 -5 52 -24 70 -40 l32
-30 -49 26 c-72 37 -155 35 -232 -6 l-59 -30 31 31 c52 53 129 71 207 49z
m312 -15 c40 -26 85 -103 85 -144 0 -28 -8 -43 -35 -70 -27 -26 -35 -30 -35
-16 0 11 -4 14 -12 10 -7 -4 -2 7 11 24 12 18 24 49 26 69 l5 38 -13 -36 c-6
-19 -21 -48 -31 -64 l-19 -29 -10 22 c-8 18 -6 31 8 55 16 28 16 30 2 18 -26
-21 -22 9 5 45 l22 29 -26 -23 -25 -23 -6 43 c-3 24 -1 48 5 55 13 16 14 16
43 -3z m399 -29 c32 -21 58 -78 54 -118 -3 -30 -5 -32 -40 -31 -34 1 -37 -1
-32 -22 5 -18 0 -26 -25 -38 -55 -29 -100 -17 -126 34 -61 118 62 245 169 175z
m-460 -49 c5 -31 4 -46 -2 -42 -6 4 -6 -6 1 -24 15 -39 3 -48 -31 -23 -33 25
-33 58 -1 109 12 19 22 34 24 32 1 -2 6 -25 9 -52z m567 26 l32 -29 -39 -149
c-27 -103 -40 -139 -42 -118 -2 17 4 61 12 98 21 88 20 132 -4 184 -23 52 -7
57 41 14z m-1379 -78 c4 -3 -2 -14 -12 -24 -18 -18 -20 -34 -20 -142 l-1 -123
-39 42 c-25 26 -40 52 -40 68 0 14 -4 25 -9 25 -6 0 -12 17 -14 38 -4 36 -4
35 -5 -8 -1 -29 5 -59 18 -82 l19 -37 -37 13 c-34 12 -38 18 -51 68 -13 51
-13 58 5 94 26 51 93 88 144 79 19 -4 38 -9 42 -11z m100 -45 c74 -16 117 -40
186 -104 61 -56 94 -111 75 -123 -5 -4 -13 -14 -16 -22 -3 -10 -6 -7 -6 8 -3
87 -134 203 -246 219 -61 8 -57 -2 8 -17 111 -25 217 -130 217 -215 0 -35 -3
-41 -20 -40 -11 1 -23 5 -27 10 -5 4 -3 5 3 2 7 -4 15 0 18 9 5 13 2 15 -14
11 -11 -3 -18 -1 -15 3 3 5 0 10 -7 12 -11 4 -16 20 -21 70 -5 44 -17 45 -17
2 0 -36 -1 -37 -14 -18 -8 11 -19 36 -24 55 -10 33 -10 33 -11 6 l-1 -28 -27
19 c-55 37 -57 33 -7 -15 29 -26 64 -65 79 -86 l28 -38 -29 7 c-55 13 -105 34
-134 54 -56 40 -99 180 -65 213 20 20 19 20 87 6z m668 -4 c11 -13 10 -14 -4
-9 -9 3 -16 10 -16 15 0 13 6 11 20 -6z m-208 -53 c42 -37 101 -122 110 -157
4 -15 0 -20 -18 -21 -14 -1 -24 5 -27 15 -1 9 -7 -13 -11 -49 l-8 -65 -20 40
c-20 38 -20 41 -4 109 9 38 14 71 12 74 -3 2 -10 -17 -17 -43 -13 -53 -20 -48
-39 33 -18 77 -25 55 -11 -34 7 -41 10 -78 7 -81 -3 -3 -21 4 -41 16 -20 12
-35 16 -33 10 2 -7 20 -20 39 -30 45 -24 59 -37 59 -55 0 -11 -7 -13 -27 -8
-15 4 -34 7 -41 7 -25 0 -44 55 -38 115 4 40 3 48 -3 27 -5 -16 -9 -47 -10
-68 -1 -50 38 -92 96 -101 27 -5 43 -14 46 -25 3 -14 -6 -19 -61 -27 l-65 -10
-23 51 c-35 77 -39 129 -15 205 11 36 30 80 41 98 23 38 34 35 102 -26z m508
16 c11 -12 20 -34 20 -50 0 -25 -2 -27 -26 -18 -14 6 -54 10 -90 10 -61 0 -64
1 -54 20 13 24 44 41 90 51 19 4 36 7 37 8 1 0 11 -9 23 -21z m-275 -34 c33
-19 61 -37 63 -38 1 -2 -11 -17 -27 -35 -16 -17 -37 -51 -48 -76 l-18 -45 -12
52 -12 53 4 -65 c2 -36 0 -74 -5 -85 -7 -16 -9 -11 -9 22 -1 38 -32 112 -82
191 -13 21 -12 25 10 43 34 28 70 24 136 -17z m-1126 11 c26 -6 30 -10 20 -17
-10 -7 -8 -8 9 -5 12 3 20 1 16 -4 -3 -5 -12 -9 -20 -9 -8 0 -14 -7 -14 -15 0
-8 -5 -15 -12 -15 -6 0 -3 -10 8 -22 10 -13 -1 -5 -26 17 -41 37 -42 38 -26
10 10 -16 27 -37 38 -46 20 -15 19 -16 -22 -27 -42 -10 -42 -10 -56 24 -8 18
-14 46 -14 60 0 33 27 66 49 60 9 -3 31 -8 50 -11z m2048 -26 c23 -10 61 -19
85 -19 51 0 68 -13 68 -53 0 -45 -17 -65 -83 -98 -34 -17 -75 -44 -92 -59 -35
-33 -59 -41 -60 -20 0 8 -12 17 -27 20 -25 5 -68 47 -68 67 0 18 96 34 158 27
34 -3 62 -2 65 3 3 5 -2 9 -11 9 -9 0 -33 2 -52 3 l-35 2 40 20 40 19 -35 -6
c-19 -3 -46 -9 -59 -11 l-24 -6 19 32 c10 17 23 31 29 31 5 0 3 5 -5 10 -40
26 -114 3 -195 -60 -34 -26 -62 -40 -81 -40 -28 1 -28 2 31 56 71 64 106 85
160 95 48 8 76 4 132 -22z m-417 -77 c0 -47 0 -48 -40 -59 -22 -5 -40 -9 -40
-7 0 16 18 38 39 46 14 6 21 12 15 15 -20 7 -62 -15 -69 -37 -8 -26 -25 -16
-25 16 0 15 -4 23 -10 19 -6 -4 -7 -12 -3 -18 3 -7 -3 -3 -15 7 -32 28 -28 34
26 42 26 4 56 10 67 15 46 18 55 12 55 -39z m-231 14 c26 -14 111 -99 111
-112 0 -3 -15 -27 -33 -53 -54 -74 -64 -103 -62 -167 2 -33 4 -65 6 -73 10
-38 -114 -55 -178 -25 -51 25 -67 55 -60 112 6 45 6 46 -8 22 -19 -33 -19 -70
1 -98 9 -13 14 -25 11 -28 -13 -13 -47 70 -61 149 -16 81 -16 92 0 146 19 70
63 127 107 141 40 12 130 4 166 -14z m562 -4 c-26 -38 -40 -48 -74 -56 l-29
-7 21 30 c33 46 24 48 -17 3 -23 -24 -48 -42 -60 -42 -12 0 -22 2 -22 4 0 11
111 87 119 82 5 -4 12 -2 16 4 3 5 20 10 36 10 l30 0 -20 -28z m-1634 -59 c-3
-10 -5 -2 -5 17 0 19 2 27 5 18 2 -10 2 -26 0 -35z m100 -34 c20 -13 62 -30
93 -38 42 -12 72 -30 119 -72 l63 -56 -36 -38 c-37 -39 -49 -68 -18 -44 15 13
16 12 3 -3 -7 -10 -23 -18 -35 -18 -17 0 -19 2 -6 11 12 8 8 10 -17 7 -19 -3
-30 0 -26 6 4 5 -1 7 -10 3 -13 -5 -35 14 -83 71 -76 89 -99 129 -109 192 -6
43 -6 44 9 23 9 -12 33 -32 53 -44z m-289 37 c11 -11 48 -123 45 -137 -10 -38
-38 -13 -52 47 l-9 39 -1 -34 c-1 -32 -2 -33 -18 -19 -44 37 -44 26 0 -17 26
-26 47 -47 47 -48 0 -1 -66 -1 -146 1 -123 3 -150 0 -171 -14 -18 -11 -39 -15
-70 -11 -53 6 -45 -9 12 -21 29 -6 46 -5 62 6 34 21 94 18 114 -7 9 -11 20
-17 24 -13 4 4 3 -3 -3 -14 -6 -12 -8 -24 -5 -28 3 -3 1 -6 -6 -6 -7 0 -9 -6
-6 -12 3 -7 -2 -3 -11 10 -19 26 -38 28 -87 7 -53 -22 -86 -19 -96 8 -5 12
-11 21 -15 20 -38 -16 -72 20 -62 63 12 45 41 64 100 64 51 0 55 2 75 35 22
38 54 55 144 80 42 11 122 12 135 1z m92 -16 c21 -11 42 -25 45 -31 12 -18 -4
-23 -32 -10 -28 11 -28 11 -7 -7 21 -18 21 -19 3 -43 -10 -13 -19 -18 -19 -11
0 6 -11 35 -25 64 -14 28 -25 53 -25 55 0 8 24 1 60 -17z m1574 -54 c89 -52
132 -141 123 -253 -8 -106 -68 -173 -154 -173 -23 0 -80 14 -126 30 -47 17
-92 30 -99 30 -17 0 -70 55 -88 90 -21 40 -17 129 7 175 24 45 73 94 118 119
47 26 160 17 219 -18z m452 -128 c24 -72 20 -120 -5 -52 -9 26 -16 33 -21 23
-7 -10 -17 -6 -44 15 -43 33 -45 48 -8 90 25 30 28 31 40 14 7 -10 24 -50 38
-90z m-1183 35 c7 -16 12 -36 9 -46 -3 -15 -6 -16 -25 -2 -19 13 -34 61 -15
49 4 -3 8 2 8 10 0 23 8 19 23 -11z m-101 -39 c74 -25 123 -74 146 -147 11
-34 23 -84 27 -110 l6 -49 -35 40 c-62 68 -82 62 -147 -40 -28 -44 -32 -46
-61 -37 -72 20 -157 4 -171 -33 -3 -10 -11 -9 -33 4 -42 24 -59 63 -59 138 1
79 26 132 86 184 73 62 156 80 241 50z m-712 -20 c0 -12 7 -15 28 -11 l27 5
-28 -22 c-16 -13 -28 -29 -27 -37 5 -29 -1 -39 -20 -39 -16 0 -20 7 -20 30 0
26 -4 30 -27 30 -25 1 -26 2 -11 14 10 7 14 17 10 21 -4 5 -2 5 4 2 7 -4 17 0
24 8 16 20 40 19 40 -1z m-82 -71 c-2 -10 -11 -19 -21 -21 -16 -3 -17 -1 -7
17 13 25 33 28 28 4z m23 -26 c-8 -8 -11 -5 -11 9 0 27 14 41 18 19 2 -9 -1
-22 -7 -28z m-280 16 c13 -16 12 -17 -3 -4 -10 7 -18 15 -18 17 0 8 8 3 21
-13z m2171 0 c30 -27 22 -51 -29 -82 -26 -17 -50 -26 -53 -22 -3 4 -12 11 -20
14 -8 3 0 6 18 6 20 1 31 5 27 11 -4 6 -21 8 -39 4 -36 -6 -34 -9 -28 69 3 24
97 24 124 0z m226 -70 c11 -32 34 -89 50 -128 38 -92 65 -197 52 -205 -14 -9
-117 41 -125 60 -3 8 1 20 9 26 9 6 13 14 9 17 -3 4 1 9 9 12 21 8 18 132 -4
165 -17 24 -36 110 -25 110 3 0 14 -26 25 -57z m-2501 22 c-9 -7 -14 -15 -10
-18 3 -4 -4 -7 -17 -7 l-23 0 23 25 c12 13 27 22 33 18 6 -4 3 -11 -6 -18z
m453 -30 c27 -13 51 -29 54 -33 3 -5 -10 -40 -29 -78 -19 -38 -35 -75 -35 -81
0 -7 -5 -13 -10 -13 -16 0 -70 -42 -70 -54 0 -5 13 3 30 19 43 41 47 25 6 -24
-64 -76 -116 -111 -165 -111 -61 0 -95 104 -48 147 22 21 134 60 143 50 5 -4
-18 -75 -51 -162 l-8 -20 16 20 c9 11 26 49 38 85 12 36 35 81 50 101 16 20
29 40 29 44 0 4 -9 -4 -20 -18 -15 -18 -37 -29 -78 -37 -138 -29 -182 -82
-142 -173 38 -85 102 -77 208 26 28 28 52 46 52 39 0 -32 -50 -104 -124 -179
-90 -91 -109 -99 -183 -68 l-37 16 36 24 c19 13 38 31 42 41 4 9 -8 4 -29 -15
-20 -17 -42 -31 -50 -31 -7 0 -24 17 -37 38 -31 50 -31 147 1 214 45 93 189
194 297 206 24 2 44 9 44 13 0 13 -30 11 -91 -7 -210 -62 -335 -233 -289 -394
19 -67 131 -153 176 -136 9 3 12 1 9 -4 -12 -19 -78 -10 -121 15 -132 77 -134
277 -5 412 85 88 209 152 294 153 31 0 64 -8 97 -25z m147 4 c-22 -11 -41 -18
-44 -16 -6 7 48 36 67 36 8 0 -2 -9 -23 -20z m136 -6 c15 -3 27 -9 27 -14 0
-5 6 -6 14 -3 11 4 15 -7 17 -45 2 -28 1 -51 -3 -51 -5 0 -8 16 -8 35 0 34
-14 48 -23 23 -3 -10 -8 -9 -22 2 -17 14 -18 11 -13 -63 4 -60 2 -77 -9 -77
-7 0 -13 -5 -13 -11 0 -5 5 -7 11 -3 18 11 29 -17 29 -79 0 -91 -49 -167 -132
-201 -91 -38 -159 -2 -174 92 -7 48 36 218 71 277 45 77 130 139 175 129 14
-3 37 -8 53 -11z m772 -18 c33 0 74 4 90 8 22 6 26 6 15 -2 -8 -6 -38 -16 -67
-22 -45 -10 -59 -9 -97 5 -24 9 -50 23 -56 31 -9 11 -3 10 21 -3 21 -10 57
-17 94 -17z m-1535 5 c12 -8 9 -9 -12 -8 -15 1 -24 6 -22 10 7 10 16 10 34 -2z
m2297 -32 c-3 -7 -5 -2 -5 12 0 14 2 19 5 13 2 -7 2 -19 0 -25z m166 6 c41
-21 47 -31 47 -77 0 -70 -65 -157 -117 -157 -42 0 -75 70 -53 111 11 19 10 24
-6 36 -26 19 -8 63 36 85 43 22 53 22 93 2z m-773 -21 c39 -23 54 -55 55 -116
0 -51 0 -52 -32 -55 -32 -3 -32 -3 -36 50 l-3 53 -2 -57 c-2 -46 -6 -60 -24
-73 -23 -15 -23 -15 -31 27 -4 24 -8 66 -8 93 -2 44 -2 46 -6 12 -4 -34 -6
-37 -26 -30 -12 4 -37 8 -54 8 -39 0 -39 1 -14 41 18 29 41 40 126 58 11 2 22
4 23 5 2 0 17 -7 32 -16z m-1618 -11 c12 -12 -2 -38 -48 -87 -15 -16 -27 -31
-26 -32 1 -2 2 -9 2 -15 -1 -7 -14 3 -30 22 -34 39 -41 27 -9 -14 19 -24 19
-26 2 -26 -10 0 -30 8 -43 17 l-25 17 19 -22 c10 -12 28 -24 39 -28 15 -5 17
-8 6 -15 -11 -6 -11 -11 -1 -21 12 -12 17 -48 7 -48 -3 0 -17 7 -31 17 -59 39
-86 161 -43 204 11 11 35 27 52 35 35 16 112 13 129 -4z m1187 -74 l1 -72 -25
24 c-30 28 -33 16 -5 -20 11 -14 20 -34 20 -44 0 -19 -1 -19 -20 -1 -20 18
-21 18 -15 -1 7 -19 6 -19 -9 0 -25 31 -20 100 10 146 15 22 30 40 34 40 4 0
8 -32 9 -72z m68 18 c18 -27 33 -52 33 -57 0 -5 -14 -23 -31 -41 -29 -30 -30
-31 -15 -5 9 15 12 27 7 27 -6 0 -15 -9 -21 -21 -7 -11 -14 -18 -17 -15 -10
10 -9 166 1 163 5 -2 25 -25 43 -51z m-498 -33 c5 -10 11 -16 13 -13 8 10 65
-66 70 -92 6 -32 -5 -35 -56 -14 -27 11 -35 22 -44 59 -7 24 -14 52 -18 61 -9
22 22 21 35 -1z m740 -29 c21 -15 23 -21 16 -81 -17 -158 -76 -287 -155 -339
-52 -35 -160 -45 -208 -20 -40 21 -53 40 -17 26 90 -34 230 9 268 83 11 21 17
41 13 44 -3 3 -11 -8 -17 -26 -20 -58 -130 -102 -214 -87 -19 4 -35 11 -35 17
0 17 89 49 136 49 24 0 44 5 44 10 0 6 -12 10 -26 10 l-27 0 25 19 c13 11 40
24 59 29 19 6 26 11 16 11 -16 1 -16 3 -1 25 8 14 29 28 45 31 16 4 31 11 34
16 4 5 -5 5 -20 -1 -15 -6 -28 -10 -31 -10 -9 0 -4 102 6 121 6 10 8 19 6 19
-14 0 -36 -64 -36 -103 0 -28 -6 -49 -15 -57 -14 -12 -15 -8 -11 31 l6 44 -14
-41 c-39 -115 -60 -113 -54 4 5 81 4 84 -8 47 -7 -22 -13 -68 -13 -103 -1 -46
-4 -63 -13 -60 -16 6 -42 121 -34 152 9 36 93 123 129 135 75 23 117 25 146 5z
m-440 -5 c21 -7 31 -17 31 -31 0 -17 -3 -18 -15 -8 -8 7 -15 9 -15 6 0 -4 -6
-4 -12 0 -14 9 -18 9 -91 20 -32 4 -44 10 -35 15 19 12 99 11 137 -2z m-53
-50 c81 -25 129 -52 151 -85 13 -20 13 -29 3 -54 -10 -23 -16 -28 -26 -19 -33
27 -81 -37 -91 -122 -3 -27 -9 -49 -14 -49 -16 0 -20 42 -9 95 12 58 44 95 82
95 11 0 17 4 14 9 -3 5 -14 7 -24 4 -14 -3 -21 4 -29 29 l-11 33 -1 -37 c-1
-43 -15 -49 -32 -15 -16 29 -58 80 -76 90 -8 5 2 -12 21 -38 36 -46 54 -90 42
-102 -3 -3 -24 -1 -46 6 -43 13 -70 51 -85 119 -14 65 20 75 131 41z m740 -35
c57 -27 94 -78 94 -129 0 -45 0 -45 -35 -45 -19 0 -35 4 -35 9 0 5 -7 12 -16
15 -14 5 -15 4 -5 -8 8 -10 9 -16 1 -21 -5 -3 -14 4 -18 16 -7 19 -10 20 -15
6 -4 -10 -16 -17 -27 -17 -18 0 -19 3 -10 21 17 32 3 36 -21 6 -17 -22 -24
-25 -40 -17 -24 13 -24 27 -1 34 9 2 0 2 -20 -1 -46 -6 -48 1 -8 22 40 21 83
19 130 -5 22 -11 40 -18 40 -15 0 2 -15 12 -32 22 l-33 17 25 6 c21 5 17 7
-23 13 -32 4 -62 2 -89 -8 -23 -8 -43 -13 -44 -12 -1 1 -4 18 -7 38 -5 33 -2
38 26 52 42 21 120 21 163 1z m520 -29 c13 -8 24 -17 24 -18 0 -1 -18 -1 -39
1 -141 14 -254 -155 -197 -292 19 -45 72 -103 115 -126 l36 -19 -30 0 c-43 -1
-105 38 -139 87 -26 37 -31 54 -34 117 -5 91 17 145 85 205 57 50 36 53 -24 4
l-45 -37 -31 32 -32 31 38 0 c20 0 63 9 94 19 95 32 125 31 179 -4z m-1438
-35 c31 0 41 -4 45 -20 6 -25 -13 -26 -74 -5 -48 17 -69 38 -69 68 0 16 5 14
29 -12 23 -25 37 -31 69 -31z m-18 36 c0 -11 -19 -15 -25 -6 -3 5 1 10 9 10 9
0 16 -2 16 -4z m1901 -147 c14 -26 -6 -66 -43 -89 -29 -18 -114 -38 -122 -29
-7 9 -15 69 -8 67 14 -3 102 25 102 32 0 9 -26 20 -43 19 -7 0 -3 -4 8 -9 18
-7 18 -8 -7 -15 -42 -11 -71 1 -96 41 -19 31 -20 35 -5 30 15 -6 15 -5 -1 13
-10 11 -23 18 -27 15 -10 -6 -58 26 -59 39 0 4 11 7 25 7 14 0 25 4 25 10 0
15 240 -111 251 -131z m-2856 -99 c2 -80 9 -155 17 -185 13 -45 13 -55 -2 -99
l-16 -49 -23 99 c-25 103 -41 382 -26 441 7 27 7 27 27 -22 16 -40 21 -78 23
-185z m2107 176 l38 -44 -16 -39 c-26 -62 -31 -64 -68 -27 -19 19 -41 34 -50
34 -11 0 -16 9 -16 33 l0 32 20 -30 c21 -32 70 -53 70 -30 0 8 -8 20 -18 27
-31 21 -46 57 -31 74 18 22 31 17 71 -30z m280 31 c-51 -19 -98 -62 -122 -112
-18 -38 -21 -58 -18 -113 3 -37 8 -76 12 -87 6 -15 2 -14 -18 8 -52 56 -56
144 -11 223 35 60 91 92 160 92 l30 0 -33 -11z m-696 -33 c-4 -9 -9 -15 -11
-12 -3 3 -3 13 1 22 4 9 9 15 11 12 3 -3 3 -13 -1 -22z m850 0 c70 -33 126
-141 104 -199 -8 -21 -124 -120 -167 -143 -33 -18 -94 -14 -131 8 -77 47 -96
188 -36 272 16 22 45 49 64 59 43 24 120 25 166 3z m-1531 -48 c7 3 15 -3 19
-13 4 -9 4 -14 0 -10 -4 4 -13 2 -21 -5 -16 -13 -18 -11 -28 22 -6 20 -5 22 5
13 7 -6 18 -9 25 -7z m255 -5 c0 -12 -20 -25 -27 -18 -7 7 6 27 18 27 5 0 9
-4 9 -9z m60 6 c0 -2 -12 -14 -27 -28 l-28 -24 24 28 c23 25 31 32 31 24z
m430 -77 c0 -21 -23 -20 -38 1 -27 39 -23 51 9 28 16 -11 29 -24 29 -29z m271
10 c37 -20 62 -89 67 -182 4 -77 2 -92 -22 -144 -47 -101 -90 -141 -184 -169
l-23 -7 21 41 c15 31 26 41 45 41 41 0 142 107 121 128 -3 3 -6 0 -6 -7 0 -7
-5 -9 -12 -5 -7 4 -10 4 -6 -1 11 -11 -30 -64 -65 -86 -37 -22 -57 -11 -57 32
0 25 4 29 28 29 15 1 41 7 57 14 29 13 29 13 -21 11 l-51 -2 23 41 c13 22 24
51 24 64 0 29 -20 19 -21 -11 -1 -20 -2 -20 -6 -2 -3 11 -13 25 -22 32 -14 11
-9 19 42 69 32 31 56 58 54 60 -6 7 -134 -94 -151 -118 -16 -22 -16 -22 -16 9
0 25 6 36 28 47 15 8 23 15 19 16 -5 0 -17 -5 -28 -10 -30 -17 -25 16 6 36 36
23 25 29 -14 7 -25 -15 -31 -24 -31 -53 l-1 -35 -34 40 c-26 30 -31 43 -24 57
13 24 52 49 92 58 48 12 146 11 168 0z m-1141 -14 c0 -2 -16 -13 -35 -24 -21
-13 -37 -32 -41 -49 -4 -15 -14 -37 -23 -47 -16 -19 -127 -76 -148 -76 -12 0
-43 92 -43 128 0 36 10 50 32 44 16 -4 19 -10 14 -31 -3 -14 -8 -37 -11 -51
-3 -14 5 -5 17 20 12 25 21 49 20 53 -1 5 2 6 7 3 5 -4 11 -2 13 3 4 12 43 18
45 7 1 -5 6 -12 13 -16 7 -5 -7 -27 -42 -65 -72 -79 -30 -54 57 34 53 54 76
71 97 71 16 0 28 -2 28 -4z m377 -18 c-3 -8 -6 -5 -6 6 -1 11 2 17 5 13 3 -3
4 -12 1 -19z m-237 -4 c67 -19 208 -142 244 -212 70 -136 -20 -302 -164 -302
-66 0 -122 41 -134 97 -1 10 -19 52 -39 94 -20 41 -48 120 -63 174 l-28 98 24
16 c35 24 103 50 120 46 8 -2 26 -7 40 -11z m-947 -185 c-10 -16 -20 -29 -24
-29 -11 0 -29 96 -29 153 l1 52 34 -74 c34 -72 34 -74 18 -102z m281 92 c-22
-55 -26 -89 -15 -146 8 -47 8 -72 -2 -115 -12 -50 -15 -53 -25 -33 -7 12 -12
40 -12 63 0 25 -4 39 -10 35 -13 -8 -13 -71 1 -98 6 -12 20 -32 31 -44 13 -14
18 -28 13 -42 -10 -32 -21 -26 -61 36 -30 46 -34 60 -25 75 6 10 11 21 11 25
0 5 -5 0 -11 -9 -14 -26 -26 -22 -37 11 -14 41 3 122 31 143 23 18 20 22 -8
12 -19 -8 -45 -55 -46 -86 -1 -15 -5 -9 -15 21 -7 24 -16 47 -20 50 -6 6 3
-55 13 -91 6 -25 -10 -22 -49 8 -18 14 -6 1 26 -29 l59 -55 -48 9 c-26 5 -51
6 -56 3 -14 -8 -11 -40 10 -99 26 -75 55 -111 109 -141 39 -21 42 -24 17 -19
-75 16 -169 84 -202 149 -32 61 7 182 95 292 29 38 61 62 119 92 l78 40 18
-20 c10 -12 15 -28 11 -37z m153 3 c3 -8 -1 -22 -9 -30 -13 -14 -17 -14 -32 1
-13 13 -14 20 -5 31 15 19 38 18 46 -2z m2201 -29 c15 -32 15 -40 2 -87 -12
-41 -50 -92 -82 -109 -15 -8 -19 -8 -14 0 4 6 2 11 -3 11 -26 0 -9 51 27 85
l37 36 -54 -28 c-38 -20 -55 -25 -58 -15 -3 6 -9 10 -14 7 -5 -4 -16 -2 -24 2
-12 7 -6 16 28 45 56 46 108 78 128 78 9 0 21 -11 27 -25z m-2913 -225 c142
-540 533 -972 1031 -1138 165 -55 300 -76 481 -77 90 0 163 -1 163 -2 0 -1
-20 -16 -44 -33 -69 -47 -151 -64 -281 -57 -183 9 -344 56 -540 155 -426 217
-758 688 -840 1194 -19 117 -19 195 0 93 7 -38 20 -99 30 -135z m2002 151 c45
-32 73 -90 73 -149 0 -51 -36 -123 -104 -210 -74 -94 -137 -132 -219 -132 -60
0 -118 18 -150 48 -51 46 -73 153 -46 226 16 44 94 103 164 125 33 11 87 33
120 51 79 42 132 29 175 -43 41 -67 19 -145 -63 -221 -34 -31 -37 -35 -12 -21
47 28 73 55 95 100 39 81 20 151 -53 201 -50 34 -94 31 -173 -11 -36 -19 -72
-35 -80 -35 -25 0 -77 -30 -116 -68 -46 -44 -50 -27 -7 23 20 22 72 56 141 90
135 68 190 73 255 26z m-1056 -87 c43 -21 77 -70 85 -119 14 -94 -69 -184
-169 -185 -134 -1 -206 166 -114 266 54 59 129 73 198 38z m1688 -40 c-12 -16
-12 -17 4 -11 9 3 17 2 17 -3 0 -6 -12 -10 -26 -10 -14 0 -23 4 -19 10 3 6 -1
13 -10 16 -14 6 -14 8 1 19 11 7 14 17 9 26 -4 8 3 4 15 -8 21 -19 22 -24 9
-39z m-176 7 c44 -21 126 -93 172 -152 12 -14 27 -28 35 -31 12 -4 13 -8 2
-19 -11 -12 -106 -18 -167 -10 -11 1 -39 -1 -61 -4 -25 -5 -57 -2 -78 5 -37
12 -52 32 -17 23 10 -3 22 0 25 6 4 6 0 11 -8 11 -23 0 -64 21 -70 36 -8 21 5
46 20 40 10 -4 14 3 14 19 0 32 12 31 52 -3 92 -79 171 -122 184 -100 4 6 3 8
-4 4 -20 -12 -24 15 -5 37 l18 22 -22 -19 c-27 -23 -37 -19 -120 42 l-65 47
44 6 43 6 -46 1 c-63 3 -106 22 -101 46 3 16 11 18 56 14 29 -2 73 -15 99 -27z
m100 -11 c3 -11 1 -18 -4 -14 -5 3 -9 12 -9 20 0 20 7 17 13 -6z m-2188 -46
c33 -6 36 -9 33 -38 -2 -25 -9 -32 -33 -38 -29 -6 -29 -6 5 -5 32 2 35 5 38
36 l4 34 19 -29 c11 -16 27 -42 35 -57 l15 -29 -59 4 c-48 2 -58 0 -50 -9 6
-8 36 -13 72 -14 l61 -1 -40 -19 c-40 -18 -40 -18 -10 -19 17 0 37 4 44 9 18
11 55 -5 46 -20 -4 -5 0 -9 7 -10 7 0 0 -5 -17 -10 -46 -14 -113 9 -156 54
-26 27 -79 135 -79 161 0 12 5 16 14 13 8 -3 31 -9 51 -13z m726 -51 c15 4 19
0 19 -20 0 -13 -4 -21 -10 -18 -5 3 -10 2 -10 -4 0 -6 -7 -8 -15 -5 -10 4 -15
19 -14 43 1 20 3 28 6 18 3 -13 11 -17 24 -14z m411 -50 c-6 -10 -7 -26 -1
-41 20 -53 15 -108 -14 -146 -49 -64 -77 -42 -92 74 l-6 45 16 -28 c9 -15 20
-25 26 -22 5 4 3 13 -6 21 -8 9 -15 17 -15 19 0 8 66 69 72 67 4 -1 11 10 15
25 3 16 8 22 10 16 3 -7 0 -20 -5 -30z m941 -79 c61 5 78 4 75 -6 -16 -47
-202 -29 -261 26 -46 43 -30 46 41 9 65 -34 69 -35 145 -29z m-1338 36 c3 -5
1 -10 -4 -10 -6 0 -11 5 -11 10 0 6 2 10 4 10 3 0 8 -4 11 -10z m-61 -36 c3
-8 2 -12 -4 -9 -6 3 -10 10 -10 16 0 14 7 11 14 -7z m-658 -120 c3 -23 4 -48
2 -54 -4 -12 -60 66 -92 127 l-16 32 50 -31 c44 -27 50 -35 56 -74z m825 96
c0 8 7 -5 14 -30 16 -49 4 -68 -37 -61 -5 0 -8 -15 -8 -34 0 -37 -2 -38 -36
-29 -16 4 -19 12 -16 34 2 16 10 34 17 40 8 6 11 19 8 27 -4 11 -2 14 5 9 7
-4 12 -14 12 -22 0 -8 5 -12 10 -9 14 9 12 43 -2 48 -10 3 -10 8 1 21 11 13
16 14 22 4 7 -10 9 -10 10 2z m-177 -22 c21 -29 20 -39 -1 -31 -30 10 -42 24
-36 39 7 20 19 17 37 -8z m-394 4 c0 -15 -44 -51 -82 -67 -65 -27 -162 -15
-131 16 5 5 35 14 66 19 31 5 68 16 84 24 31 17 63 21 63 8z m231 -21 c55 2
74 -2 87 -15 15 -15 15 -18 2 -26 -8 -5 -39 -10 -69 -10 -58 0 -118 26 -139
61 -12 19 -12 19 18 4 21 -11 53 -15 101 -14z m1455 8 c29 -12 38 -15 61 -17
7 -1 26 -21 43 -44 57 -79 32 -199 -50 -232 -73 -29 -73 -28 -44 73 4 11 8 10
24 -4 26 -23 26 -8 1 19 -11 12 -29 59 -41 106 -13 47 -27 93 -32 104 -6 12
-6 16 0 13 5 -4 22 -12 38 -18z m-934 -44 c3 -13 1 -22 -3 -19 -9 5 -13 44 -5
44 2 0 6 -11 8 -25z m743 -2 c0 -12 4 -25 7 -28 11 -11 -3 -35 -21 -35 -19 0
-46 54 -37 76 9 24 51 14 51 -13z m-165 -3 c10 -5 26 -33 35 -61 l17 -51 -28
-29 c-15 -16 -31 -29 -35 -29 -3 0 -18 17 -31 38 -20 29 -25 45 -21 77 8 61
25 75 63 55z m-1166 -67 c-5 -21 -9 -77 -9 -125 1 -49 -1 -88 -3 -88 -1 0 -10
16 -18 35 -19 46 -18 136 3 180 22 47 38 45 27 -2z m56 14 c0 -7 -3 -17 -7
-23 -5 -5 1 1 12 13 27 30 86 33 78 4 -3 -12 2 -20 16 -24 32 -8 25 -22 -27
-56 -57 -37 -63 -37 -87 -11 -25 27 -30 18 -11 -18 14 -27 14 -32 -4 -68 l-20
-38 -1 44 c-3 112 12 190 36 190 8 0 15 -6 15 -13z m-316 -9 c-5 -7 2 -9 21
-4 22 6 37 -1 81 -34 30 -22 54 -43 54 -46 0 -3 -5 -2 -12 2 -8 5 -9 2 -5 -9
6 -16 4 -16 -23 -2 -16 8 -32 19 -35 25 -3 5 -11 10 -17 10 -7 0 1 -13 16 -29
l28 -29 -33 7 c-19 4 -51 14 -71 21 -31 11 -40 12 -50 1 -11 -10 -10 -12 2
-10 8 2 41 -7 72 -20 50 -21 55 -26 40 -37 -9 -7 -14 -15 -11 -18 3 -3 21 5
39 19 50 37 60 33 60 -25 0 -33 -4 -50 -12 -50 -9 0 -8 -4 2 -10 11 -7 -3 -10
-46 -10 -59 0 -131 17 -120 28 7 7 -13 32 -26 32 -5 0 -6 -6 -2 -12 6 -10 4
-10 -8 0 -9 7 -15 22 -13 32 3 14 -1 17 -12 13 -10 -4 -14 -2 -10 4 4 6 2 13
-4 15 -13 4 -25 108 -16 132 4 10 23 14 62 15 38 0 54 -3 49 -11z m921 -65 c7
-22 23 -55 35 -73 19 -26 21 -36 12 -56 -10 -20 -8 -27 8 -42 59 -55 78 -183
38 -262 -62 -122 -206 -118 -320 9 -148 164 -79 420 124 461 76 15 89 10 103
-37z m835 -78 c-12 -39 -119 -192 -146 -208 -34 -19 -115 54 -135 123 -13 42
-3 97 23 133 15 21 75 14 75 -8 0 -8 -3 -14 -6 -13 -21 2 -32 -4 -28 -14 2 -7
-5 -24 -17 -38 -18 -21 -16 -20 14 4 l35 29 7 -44 c5 -24 5 -51 2 -59 -4 -12
-3 -12 7 -3 8 8 12 35 10 75 -2 52 0 60 12 50 7 -7 17 -8 21 -4 4 4 5 -9 1
-28 -4 -25 -1 -41 10 -55 9 -11 14 -15 11 -9 -3 7 -3 33 0 58 l7 45 28 -36
c28 -35 29 -37 12 -57 l-18 -21 23 19 c27 23 27 30 2 66 l-20 28 30 22 c16 12
33 33 37 48 7 24 8 22 11 -18 2 -25 -2 -63 -8 -85z m-595 57 c6 -4 10 -14 10
-22 0 -9 7 -14 17 -12 13 2 16 -2 11 -15 -6 -16 -5 -17 13 -3 17 14 18 14 6
-2 -8 -9 -11 -22 -7 -27 10 -17 -13 -51 -31 -44 -8 3 -24 -3 -34 -12 -22 -20
-42 -13 -22 7 7 7 12 16 12 22 0 6 -5 5 -12 -2 -17 -17 -28 -15 -28 7 0 11 -9
26 -20 34 -19 13 -18 15 23 45 46 34 48 35 62 24z m200 -18 c31 -34 31 -49 0
-80 -25 -25 -51 -28 -49 -6 1 7 2 35 3 62 1 57 11 62 46 24z m-924 -94 c32
-27 60 -50 63 -50 15 0 3 23 -29 59 -29 32 -32 38 -15 34 11 -3 23 -9 26 -14
3 -5 10 -9 15 -9 6 0 7 5 4 10 -3 6 1 10 10 10 9 0 13 -5 10 -11 -4 -6 2 -21
14 -33 19 -20 21 -30 15 -80 -8 -69 -20 -77 -110 -79 -59 -2 -66 0 -94 29 -50
50 -57 140 -13 171 28 21 44 15 104 -37z m119 36 c0 -3 -4 -8 -10 -11 -5 -3
-10 -1 -10 4 0 6 5 11 10 11 6 0 10 -2 10 -4z m37 -58 c-3 -8 -6 -5 -6 6 -1
11 2 17 5 13 3 -3 4 -12 1 -19z m841 -32 l32 -44 -36 -7 c-20 -3 -37 -5 -38
-3 -39 61 -39 59 -20 79 9 10 20 19 24 19 4 0 21 -20 38 -44z m396 1 l7 -28
-21 21 c-11 11 -26 20 -32 21 -7 1 -2 4 12 8 30 9 26 12 34 -22z m-1209 -180
c16 -35 48 -76 86 -111 33 -31 54 -56 46 -56 -28 0 -116 90 -143 146 -20 41
-28 73 -30 127 l-3 72 9 -62 c5 -34 20 -86 35 -116z m699 149 c39 -16 63 -46
76 -98 9 -30 6 -49 -12 -104 l-23 -68 -62 0 c-59 -1 -62 0 -60 22 1 13 6 21
14 18 7 -3 18 0 25 7 24 21 37 18 55 -16 13 -24 18 -28 21 -15 6 30 -30 90
-71 117 -21 14 -53 38 -70 53 l-32 28 40 34 c45 40 53 41 99 22z m406 11 c0
-2 -12 -14 -27 -28 l-28 -24 24 28 c23 25 31 32 31 24z m-1459 -25 c4 -4 9
-30 13 -58 5 -40 3 -53 -8 -57 -17 -7 -150 84 -160 108 -3 9 -10 14 -15 10 -5
-3 -13 0 -17 6 -5 9 17 10 87 5 52 -4 97 -11 100 -14z m1499 -27 c5 3 11 1 14
-4 3 -5 -6 -11 -20 -14 -19 -3 -24 -1 -20 10 3 8 7 20 7 26 1 7 3 4 6 -6 2 -9
8 -15 13 -12z m-309 -3 c-5 -10 -16 -24 -24 -30 -11 -9 -16 -7 -25 12 -10 22
-8 25 11 29 45 9 48 8 38 -11z m-1078 -61 c16 -6 46 -11 67 -11 67 0 112 -25
140 -76 13 -26 37 -60 53 -76 l30 -29 -29 7 c-263 59 -308 87 -329 199 l-7 40
24 -22 c12 -12 36 -26 51 -32z m1282 19 c-3 -5 -11 -10 -16 -10 -6 0 -7 5 -4
10 3 6 11 10 16 10 6 0 7 -4 4 -10z m-35 -19 c0 -5 -12 -17 -27 -27 -24 -15
-26 -15 -14 -1 7 9 10 17 5 18 -7 0 18 14 34 18 1 1 2 -3 2 -8z m-446 -100 c3
3 -12 22 -32 44 -22 23 -30 36 -19 32 10 -4 30 -7 43 -7 23 0 24 -3 24 -70 0
-48 -4 -72 -12 -75 -7 -2 -52 -5 -100 -7 -86 -3 -87 -3 -69 17 10 11 26 34 34
50 9 17 16 25 17 19 0 -7 11 -19 23 -27 19 -12 24 -13 24 -2 0 8 -4 13 -9 12
-5 -1 -15 13 -23 31 -9 20 -10 32 -3 32 6 0 8 11 4 28 -5 24 0 21 44 -27 27
-30 52 -52 54 -50z"/>
<path d="M2980 3610 c-15 -28 -4 -39 17 -17 13 12 14 20 6 28 -8 8 -14 5 -23
-11z"/>
<path d="M2930 3571 c0 -19 23 -45 32 -35 7 6 -14 54 -24 54 -5 0 -8 -8 -8
-19z"/>
<path d="M2470 3410 c0 -5 5 -10 10 -10 6 0 10 5 10 10 0 6 -4 10 -10 10 -5 0
-10 -4 -10 -10z"/>
<path d="M2534 3398 l-19 -23 22 18 c12 11 27 16 34 11 8 -4 10 -3 5 4 -10 17
-21 15 -42 -10z"/>
<path d="M2652 3360 c-32 -30 -71 -111 -77 -162 -5 -39 -3 -36 18 24 13 37 38
88 56 113 35 49 36 56 3 25z"/>
<path d="M2707 3263 c-10 -9 -9 -23 2 -23 5 0 11 7 15 15 5 15 -5 20 -17 8z"/>
<path d="M2794 3225 c-25 -61 -14 -97 17 -58 12 15 12 16 -4 10 -15 -5 -16 -2
-11 21 4 15 14 35 22 45 10 11 11 17 3 17 -7 0 -19 -16 -27 -35z"/>
<path d="M2717 3212 c-19 -20 -23 -67 -7 -77 6 -4 7 5 4 23 -5 24 -1 33 21 51
17 13 22 21 13 21 -8 0 -22 -8 -31 -18z"/>
<path d="M2742 3185 c-7 -14 -12 -31 -12 -38 1 -17 40 32 40 49 0 23 -16 16
-28 -11z"/>
<path d="M2823 3138 c-12 -6 -24 -17 -27 -24 -4 -12 0 -11 24 1 49 25 52 47 3
23z"/>
<path d="M2814 3089 c-13 -14 -25 -18 -43 -14 -21 5 -23 4 -12 -9 19 -23 34
-20 66 14 16 17 24 30 18 30 -5 0 -18 -9 -29 -21z"/>
<path d="M1890 3166 c0 -10 47 -27 128 -46 51 -12 72 -14 72 -6 0 7 -36 19
-82 28 -46 9 -91 19 -100 23 -10 4 -18 4 -18 1z"/>
<path d="M1415 3244 c21 -8 50 -24 63 -37 16 -14 23 -17 20 -7 -6 19 -77 60
-103 59 -12 0 -4 -6 20 -15z"/>
<path d="M1228 3072 c-5 -18 3 -20 54 -13 11 2 -3 31 -14 31 -6 0 -7 -8 -4
-17 6 -16 5 -16 -12 0 -19 17 -20 17 -24 -1z"/>
<path d="M3175 3150 c-20 -22 -37 -98 -24 -106 5 -3 9 3 9 13 0 10 5 35 11 56
12 44 36 47 56 7 12 -23 13 -23 13 -4 0 18 -27 54 -42 54 -3 0 -13 -9 -23 -20z"/>
<path d="M3093 3142 c9 -9 21 -29 27 -42 10 -24 10 -24 4 5 -6 33 -21 55 -37
55 -5 0 -3 -8 6 -18z"/>
<path d="M2940 3140 c0 -5 4 -10 9 -10 6 0 13 5 16 10 3 6 -1 10 -9 10 -9 0
-16 -4 -16 -10z"/>
<path d="M3194 3119 c-6 -8 -14 -25 -18 -39 -5 -21 -4 -21 9 5 l15 30 -6 -35
c-5 -27 -3 -32 6 -24 6 6 10 26 8 44 -2 27 -5 31 -14 19z"/>
<path d="M3240 3034 c-10 -30 -9 -38 6 -55 9 -10 22 -19 27 -19 6 0 2 9 -8 21
-16 17 -17 25 -8 49 6 17 7 32 3 35 -5 3 -14 -11 -20 -31z"/>
<path d="M3037 3054 c7 -3 2 -14 -13 -29 -33 -33 -33 -87 1 -120 34 -35 55
-31 22 3 -45 47 -34 122 19 122 16 0 22 -6 22 -25 0 -13 -4 -22 -9 -19 -5 3
-9 -2 -9 -10 0 -27 17 -26 29 1 10 23 9 30 -7 52 -10 14 -30 27 -43 28 -13 1
-19 0 -12 -3z"/>
<path d="M3133 2965 c0 -27 2 -38 4 -22 2 15 2 37 0 50 -2 12 -4 0 -4 -28z"/>
<path d="M2330 3050 c-20 -6 -15 -8 28 -9 55 -1 114 -21 144 -48 10 -9 18 -12
18 -6 0 41 -129 84 -190 63z"/>
<path d="M2353 2981 c-69 -18 -193 -103 -193 -134 0 -5 17 6 38 25 115 104
225 121 327 53 20 -14 35 -20 33 -13 -3 7 -22 25 -44 40 -43 29 -110 41 -161
29z"/>
<path d="M2316 2865 c4 -8 1 -15 -5 -15 -6 0 -11 -7 -11 -15 0 -8 4 -15 8 -15
12 0 32 46 25 54 -12 12 -22 6 -17 -9z"/>
<path d="M2265 2859 c-4 -6 -4 -13 -1 -16 3 -4 6 -1 6 5 0 6 8 13 18 15 15 4
15 5 0 6 -9 0 -20 -4 -23 -10z"/>
<path d="M1821 2821 c-65 -92 -92 -221 -55 -267 14 -18 14 -18 3 5 -25 51 4
172 61 259 27 40 19 43 -9 3z"/>
<path d="M1847 2775 c3 -22 9 -49 14 -60 7 -18 8 -17 8 5 0 14 -7 41 -14 60
l-14 35 6 -40z"/>
<path d="M1925 2672 c6 -22 -9 -52 -26 -52 -5 0 -9 6 -9 14 0 7 -7 19 -15 26
-20 16 -19 0 1 -28 20 -29 42 -28 55 2 8 17 8 29 0 42 -11 17 -11 17 -6 -4z"/>
<path d="M1796 2665 c-3 -8 -1 -15 4 -15 6 0 10 7 10 15 0 8 -2 15 -4 15 -2 0
-6 -7 -10 -15z"/>
<path d="M1822 2584 c-12 -19 -20 -34 -18 -34 7 0 49 61 44 65 -2 2 -13 -12
-26 -31z"/>
<path d="M1862 2574 c10 -10 20 -16 22 -13 3 3 -5 11 -17 18 -21 13 -21 12 -5
-5z"/>
<path d="M3623 2880 c-18 -11 -33 -23 -33 -26 0 -4 6 -2 13 4 6 5 28 17 47 25
19 9 28 16 20 16 -8 1 -30 -8 -47 -19z"/>
<path d="M3627 2814 c-8 -8 1 -24 14 -24 5 0 9 7 9 15 0 15 -12 20 -23 9z"/>
<path d="M3615 2762 c-3 -3 -5 -11 -5 -19 0 -11 5 -11 20 -3 11 6 20 14 20 19
0 8 -27 11 -35 3z"/>
<path d="M1246 2804 c-9 -24 -2 -26 12 -4 7 11 8 20 3 20 -5 0 -12 -7 -15 -16z"/>
<path d="M2933 2633 c9 -2 25 -2 35 0 9 3 1 5 -18 5 -19 0 -27 -2 -17 -5z"/>
<path d="M3833 2493 c9 -2 25 -2 35 0 9 3 1 5 -18 5 -19 0 -27 -2 -17 -5z"/>
<path d="M3855 2420 c3 -5 11 -10 16 -10 6 0 7 5 4 10 -3 6 -11 10 -16 10 -6
0 -7 -4 -4 -10z"/>
<path d="M3598 2511 c7 -4 17 -21 22 -37 8 -28 8 -28 9 -3 1 26 -15 49 -33 49
-6 0 -5 -4 2 -9z"/>
<path d="M3543 2500 c-25 -10 -41 -56 -26 -71 7 -7 9 -2 6 15 -4 20 1 29 28
45 35 22 31 27 -8 11z"/>
<path d="M3562 2446 c10 -24 38 -44 38 -28 0 13 -31 52 -40 52 -5 0 -5 -11 2
-24z"/>
<path d="M3646 2451 c-4 -7 -5 -15 -2 -18 9 -9 19 4 14 18 -4 11 -6 11 -12 0z"/>
<path d="M3688 2380 c12 -5 22 -15 22 -21 0 -7 3 -9 6 -6 10 10 -16 37 -35 36
-11 0 -9 -3 7 -9z"/>
<path d="M3664 2350 c3 -14 6 -36 6 -50 0 -20 2 -22 10 -10 14 22 12 43 -6 66
-15 18 -15 18 -10 -6z"/>
<path d="M3544 2339 c-3 -6 -1 -15 6 -19 7 -4 9 -14 6 -21 -4 -8 0 -5 8 5 9
11 16 26 16 33 0 16 -26 17 -36 2z"/>
<path d="M3630 2343 c0 -19 11 -43 21 -43 13 0 11 14 -6 36 -8 10 -15 14 -15
7z"/>
<path d="M3211 2294 c0 -11 3 -14 6 -6 3 7 2 16 -1 19 -3 4 -6 -2 -5 -13z"/>
<path d="M3211 2184 c0 -11 3 -14 6 -6 3 7 2 16 -1 19 -3 4 -6 -2 -5 -13z"/>
<path d="M2245 2296 c142 -66 197 -190 131 -294 -45 -72 -120 -78 -211 -16
-30 20 -34 21 -25 5 14 -27 89 -61 134 -61 116 0 191 150 127 253 -29 47 -92
103 -137 122 -58 24 -74 17 -19 -9z"/>
<path d="M2085 2250 c13 -46 69 -130 87 -130 11 0 10 43 -1 74 -16 41 12 38
31 -3 18 -39 24 -19 8 24 -7 20 -16 26 -33 23 -23 -3 -25 -11 -12 -68 l7 -35
-19 25 c-11 14 -32 45 -47 70 -17 28 -25 35 -21 20z"/>
<path d="M2270 2181 c-7 -14 -7 -22 0 -26 14 -9 62 23 55 35 -10 17 -44 11
-55 -9z m40 0 c0 -5 -7 -12 -16 -15 -24 -9 -28 -7 -14 9 14 17 30 20 30 6z"/>
<path d="M2097 2153 c8 -24 44 -63 57 -63 6 0 -1 10 -16 21 -16 11 -28 27 -28
34 0 8 -4 17 -10 20 -6 4 -7 -1 -3 -12z"/>
<path d="M2283 2130 c-13 -5 -23 -13 -23 -18 0 -11 74 -82 85 -82 6 0 -10 17
-34 39 l-43 38 26 7 c14 3 26 11 26 16 0 12 -7 12 -37 0z"/>
<path d="M2156 2071 c-15 -16 -15 -19 -1 -24 9 -4 15 -1 15 8 0 7 5 17 11 21
8 4 9 -1 5 -17 -6 -20 -5 -21 4 -6 11 17 6 37 -9 37 -4 0 -16 -8 -25 -19z"/>
<path d="M2216 2054 c-3 -9 -3 -20 0 -25 8 -13 34 9 34 27 0 19 -26 18 -34 -2z"/>
<path d="M2685 2060 c-3 -5 1 -10 9 -10 9 0 16 5 16 10 0 6 -4 10 -9 10 -6 0
-13 -4 -16 -10z"/>
<path d="M2579 2018 c-31 -43 -39 -152 -14 -183 16 -19 16 -19 8 5 -4 14 -8
51 -8 82 0 43 5 64 23 88 13 17 22 34 19 36 -3 3 -15 -10 -28 -28z"/>
<path d="M2741 2005 c-17 -20 -31 -40 -31 -45 0 -6 16 8 36 30 20 22 35 43 32
46 -3 2 -19 -11 -37 -31z"/>
<path d="M2798 2002 c-42 -31 -72 -77 -64 -98 8 -21 33 -17 50 8 22 30 20 41
-5 33 -19 -6 -20 -5 -9 15 11 20 17 22 65 16 29 -3 62 -9 72 -12 14 -6 15 -4
6 6 -6 7 -32 15 -58 18 -39 4 -44 7 -29 15 10 6 32 14 49 18 l30 7 -35 1 c-23
0 -47 -9 -72 -27z m-23 -82 c-3 -5 -13 -10 -21 -10 -8 0 -12 5 -9 10 3 6 13
10 21 10 8 0 12 -4 9 -10z"/>
<path d="M2655 1904 c-9 -14 -14 -31 -12 -39 7 -16 86 -28 123 -18 25 6 20 8
-34 14 -34 3 -65 8 -67 11 -3 3 -1 17 4 32 13 33 8 33 -14 0z"/>
<path d="M2626 1780 c5 -5 25 -12 44 -15 36 -5 29 -1 -25 16 -20 6 -26 6 -19
-1z"/>
<path d="M1805 2070 c-3 -5 -1 -18 4 -27 6 -10 11 -13 11 -6 0 7 10 17 21 24
20 10 21 9 15 -15 -3 -14 -2 -26 3 -26 16 0 19 13 10 38 -9 23 -52 31 -64 12z"/>
<path d="M1753 2019 c-6 -6 -9 -18 -6 -26 5 -12 9 -11 24 3 10 9 16 21 13 25
-7 12 -18 11 -31 -2z"/>
<path d="M1763 1973 c-13 -2 -23 -11 -23 -18 0 -23 20 -28 41 -9 19 17 26 35
12 33 -5 -1 -18 -4 -30 -6z"/>
<path d="M1860 1960 c0 -8 5 -22 10 -30 9 -13 12 -12 25 4 8 10 12 23 8 29 -3
5 -9 3 -14 -4 -8 -12 -11 -11 -19 1 -9 13 -10 13 -10 0z"/>
<path d="M1800 1920 c-6 -12 -9 -24 -7 -27 3 -2 11 5 17 17 6 12 9 24 7 27 -3
2 -11 -5 -17 -17z"/>
<path d="M3331 1714 c0 -23 6 -48 15 -60 15 -19 16 -19 8 1 -4 11 -10 38 -14
60 l-7 40 -2 -41z"/>
<path d="M2882 1710 c0 -14 2 -19 5 -12 2 6 2 18 0 25 -3 6 -5 1 -5 -13z"/>
<path d="M1838 1673 c7 -3 16 -2 19 1 4 3 -2 6 -13 5 -11 0 -14 -3 -6 -6z"/>
<path d="M1848 1643 c7 -3 16 -2 19 1 4 3 -2 6 -13 5 -11 0 -14 -3 -6 -6z"/>
<path d="M1585 1520 c-3 -6 1 -13 10 -16 19 -8 30 0 20 15 -8 14 -22 14 -30 1z"/>
<path d="M2275 1626 c-37 -16 -92 -77 -111 -122 -8 -19 -13 -55 -13 -81 l1
-48 8 45 c16 96 66 170 135 201 22 10 33 18 25 18 -8 0 -29 -6 -45 -13z"/>
<path d="M2325 1452 c-47 -74 -56 -92 -48 -92 11 0 83 110 83 127 0 19 -2 17
-35 -35z"/>
<path d="M2241 1438 c0 -9 -4 -25 -7 -35 -5 -17 -5 -17 6 0 6 10 9 25 7 35 -4
15 -5 15 -6 0z"/>
<path d="M2272 1430 c-7 -11 -8 -20 -3 -20 9 0 24 30 18 36 -1 2 -8 -6 -15
-16z"/>
<path d="M2476 1413 c-4 -4 -16 -28 -27 -52 -11 -25 -27 -53 -36 -63 -23 -25
-67 -23 -86 5 -9 12 -16 17 -16 10 -1 -20 48 -51 72 -46 34 9 53 30 76 84 12
27 26 49 31 49 6 0 10 5 10 10 0 12 -13 13 -24 3z"/>
<path d="M2343 1398 c-6 -7 -10 -21 -10 -31 1 -29 32 -15 35 16 3 28 -9 36
-25 15z m9 -20 c-7 -7 -12 -8 -12 -2 0 6 3 14 7 17 3 4 9 5 12 2 2 -3 -1 -11
-7 -17z"/>
<path d="M2230 1302 c-1 -87 124 -190 187 -153 15 9 12 10 -20 11 -70 0 -116
36 -147 116 -13 33 -19 42 -20 26z"/>
<path d="M2620 1565 c0 -8 7 -15 15 -15 8 0 15 7 15 15 0 8 -7 15 -15 15 -8 0
-15 -7 -15 -15z"/>
<path d="M1890 1474 c0 -8 5 -12 10 -9 6 3 10 10 10 16 0 5 -4 9 -10 9 -5 0
-10 -7 -10 -16z"/>
<path d="M1940 1452 c0 -13 47 -62 60 -62 16 0 13 4 -25 39 -19 17 -35 28 -35
23z"/>
<path d="M1890 1413 c0 -12 5 -23 10 -23 6 0 10 4 10 9 0 5 2 16 5 24 4 8 0
14 -10 14 -9 0 -15 -9 -15 -24z"/>
<path d="M1937 1389 c4 -13 8 -18 11 -10 2 7 -1 18 -6 23 -8 8 -9 4 -5 -13z"/>
<path d="M2765 1370 c-10 -11 -15 -23 -12 -26 4 -4 15 4 26 17 16 20 22 22 43
12 14 -6 32 -26 41 -44 13 -27 17 -29 17 -13 0 29 -44 74 -73 74 -13 0 -32 -9
-42 -20z"/>
<path d="M2800 1325 c-8 -9 -8 -15 -2 -15 12 0 26 19 19 26 -2 2 -10 -2 -17
-11z"/>
<path d="M1041 2914 c0 -11 3 -14 6 -6 3 7 2 16 -1 19 -3 4 -6 -2 -5 -13z"/>
<path d="M1031 2874 c0 -11 3 -14 6 -6 3 7 2 16 -1 19 -3 4 -6 -2 -5 -13z"/>
<path d="M1012 2795 c-7 -32 -12 -68 -11 -79 0 -12 7 11 15 49 8 39 12 74 11
80 -2 5 -9 -17 -15 -50z"/>
<path d="M994 2525 c0 -93 2 -133 3 -88 2 45 2 122 0 170 -1 48 -3 12 -3 -82z"/>
</g>
</svg>